<svg xmlns="http://www.w3.org/2000/svg" xmlns:xlink="http://www.w3.org/1999/xlink" version="1.1" width="1000" height="1000" viewBox="0 0 1000 1000" xml:space="preserve">
<desc>Created with Fabric.js 3.5.0</desc>
<defs>
</defs>
<rect x="0" y="0" width="100%" height="100%" fill="#ffffff"/>
<g transform="matrix(2.7548 0 0 -2.7548 499.9984 499.997)" id="515">
<path style="stroke: none; stroke-width: 1; stroke-dasharray: none; stroke-linecap: butt; stroke-dashoffset: 0; stroke-linejoin: miter; stroke-miterlimit: 4; is-custom-font: none; font-file-url: none; fill: rgb(0,0,0); fill-rule: nonzero; opacity: 1;" vector-effect="non-scaling-stroke" transform=" translate(-165.0002, -164.9998)" d="M 250.606 154.389 l -150 -149.996 c -5.857 -5.858 -15.355 -5.858 -21.213 0.001 c -5.857 5.858 -5.857 15.355 0.001 21.213 l 139.393 139.39 L 79.393 304.394 c -5.857 5.858 -5.857 15.355 0.001 21.213 C 82.322 328.536 86.161 330 90 330 s 7.678 -1.464 10.607 -4.394 l 149.999 -150.004 c 2.814 -2.813 4.394 -6.628 4.394 -10.606 C 255 161.018 253.42 157.202 250.606 154.389 z" stroke-linecap="round"/>
</g>
</svg>